<svg id="Layer_1" xmlns="http://www.w3.org/2000/svg" viewBox="0 0 76.2 68.8" style="enable-background:new 0 0 76.2 68.8;"><style>.st0{fill:#E83860;} .st1{fill:#DFC586;} .st2{fill:#327787;} .st3{fill:#8ABB9C;}</style><path id="path14" class="st0" d="M76.2 50.1c0 .9-.4 1.8-1 2.5L59.4 68.4c-.9.9-2.4.3-2.4-1V31.9L76 13h.2v37.1"/><path id="path16" class="st1" d="M63.6.4c-.6-.6-1.4-.6-2 0L38.1 23.9h-.3v26.5l.3.7L57 32.3 76.2 13 63.6.4"/><path id="path18" class="st2" d="M0 50.1c0 .9.4 1.8 1 2.5l15.8 15.8c.9.9 2.4.3 2.4-1V31.9L.2 13H0v37.1"/><path id="path20" class="st3" d="M14.6.4c-.6-.6-1.4-.6-2 0L0 13l19.2 19.2 18.9 18.9V23.9L14.6.4"/></svg>