<svg id="Layer_1" xmlns="http://www.w3.org/2000/svg" viewBox="0 0 57 67.2" style="enable-background:new 0 0 57 67.2;"><style>.st0{fill:#003087;} .st1{fill:#002F86;} .st2{fill:#009CDE;} .st3{fill:#012069;}</style><path id="path14499" class="st0" d="M48.5 5.1C45.4 1.5 39.8 0 32.6 0H11.7c-1.5 0-2.7 1.1-3 2.5L0 57.7c-.2 1.1.7 2.1 1.8 2.1h12.9l3.2-20.5-.1.6c.2-1.5 1.5-2.5 2.9-2.5h6.1c12 0 21.5-4.9 24.2-19 .1-.4.2-.8.2-1.2-.3-.2-.3-.2 0 0 1-5.3.1-8.9-2.7-12.1"/><path id="path14527" class="st0" d="M48.5 5.1C45.4 1.5 39.8 0 32.6 0H11.7c-1.5 0-2.7 1.1-3 2.5L0 57.7c-.2 1.1.7 2.1 1.8 2.1h12.9l3.2-20.5-.1.6c.2-1.5 1.5-2.5 2.9-2.5h6.1c12 0 21.5-4.9 24.2-19 .1-.4.2-.8.2-1.2-.3-.2-.3-.2 0 0 1-5.3.1-8.9-2.7-12.1"/><path id="path14531" class="st1" d="M21.4 17.2c.1-.9.7-1.6 1.5-2 .3-.2.7-.3 1.1-.3h16.4c1.9 0 3.7.1 5.4.4.5.1.9.2 1.4.3.4.1.9.2 1.3.3.2.1.4.1.6.2.8.3 1.6.6 2.3 1 .8-5.2 0-8.8-2.8-12-3.2-3.6-8.8-5.1-16-5.1H11.7c-1.5 0-2.7 1.1-3 2.5L0 57.7c-.2 1.1.7 2.1 1.8 2.1h12.9l3.2-20.5 3.5-22.1z"/><path id="path14535" class="st2" d="M51.3 17.1c-.1.4-.1.8-.2 1.2-2.8 14.1-12.2 19-24.2 19h-6.1c-1.5 0-2.7 1.1-2.9 2.5l-3.1 19.9-.9 5.6c-.2 1 .6 1.8 1.5 1.8h10.9c1.3 0 2.4-.9 2.6-2.2l.1-.6 2-13 .1-.7c.2-1.3 1.3-2.2 2.6-2.2h1.6c10.5 0 18.8-4.3 21.2-16.7 1-5.2.5-9.5-2.2-12.5-.8-.7-1.8-1.5-3-2.1"/><path id="path14539" class="st3" d="M48.5 15.9c-.4-.1-.9-.2-1.3-.3-.4-.1-.9-.2-1.4-.3-1.7-.3-3.5-.4-5.4-.4H24c-.4 0-.8.1-1.1.3-.8.4-1.3 1.1-1.5 2l-3.5 22.1-.1.6c.2-1.5 1.5-2.5 2.9-2.5h6.1c12 0 21.5-4.9 24.2-19 .1-.4.2-.8.2-1.2-.7-.4-1.5-.7-2.3-1 0-.1-.2-.2-.4-.3"/></svg>